<svg width="28" height="27" viewBox="0 0 28 27" fill="none" xmlns="http://www.w3.org/2000/svg">
<path d="M9.97264 0.654634C9.97264 0.294475 9.6817 0 9.32035 0H5.30942C4.94926 0 4.65479 0.294466 4.65479 0.654634V1.0629H9.97396L9.97264 0.654634Z" fill="#E4B043"/>
<path d="M22.3532 0.654634C22.3532 0.294475 22.0623 0 21.7009 0H17.6888C17.3287 0 17.0342 0.294466 17.0342 0.654634V1.0629H22.3534L22.3532 0.654634Z" fill="#E4B043"/>
<path d="M16.1638 0.654634C16.1638 0.294475 15.8728 0 15.5115 0H11.4994C11.1392 0 10.8447 0.294466 10.8447 0.654634V1.0629H16.1639L16.1638 0.654634Z" fill="#E4B043"/>
<path d="M26.5734 21.2987H25.9071L25.9059 7.30382C25.9059 6.29723 25.0858 5.48071 24.0828 5.48071H23.2264V6.35119H24.0828C24.6084 6.35119 25.0354 6.77824 25.0354 7.30382V21.2999L1.97561 21.2987V7.30385C1.97561 6.77827 2.40266 6.35122 2.92824 6.35122H3.78466V5.48074H2.92824C1.92164 5.48074 1.10513 6.29728 1.10513 7.30385V21.2999L0.435241 21.2987C0.194741 21.2987 0 21.4935 0 21.734V23.3741C0 24.8992 1.24004 26.1404 2.76633 26.1404H24.2437C25.7688 26.1404 27.01 24.9004 27.01 23.3741V21.734C27.0112 21.4947 26.8163 21.2987 26.5734 21.2987ZM19.3315 22.4108C19.3315 23.1828 18.7039 23.8105 17.9319 23.8105H9.07213C8.3037 23.8105 7.67607 23.1828 7.67607 22.4108V22.1703H19.328L19.3292 22.4108H19.3315Z" fill="#E4B043"/>
<path d="M17.0342 16.116H22.3534V17.1766H17.0342V16.116Z" fill="#E4B043"/>
<path d="M10.8447 16.116H16.1639V17.1766H10.8447V16.116Z" fill="#E4B043"/>
<path d="M4.65674 16.116H9.97592V17.1766H4.65674V16.116Z" fill="#E4B043"/>
<path d="M18.32 8.67908L13.6801 10.7098C13.6227 10.7333 13.5663 10.7462 13.5065 10.7462C13.4467 10.7462 13.3868 10.7345 13.3329 10.7098L8.68945 8.67908V11.9464C11.8583 12.838 15.0925 12.838 18.3235 11.9464L18.3223 8.67908H18.32Z" fill="#E4B043"/>
<path d="M16.1639 13.2919C15.2664 13.4245 14.3736 13.4902 13.4785 13.4902C12.5951 13.4902 11.7211 13.4268 10.8447 13.2978V15.2441H16.1639L16.1639 13.2919Z" fill="#E4B043"/>
<path d="M5.30909 19.1097H9.32122C9.68138 19.1097 9.97352 18.8187 9.97352 18.455V18.0468H4.65674V18.455C4.65674 18.8187 4.95126 19.1097 5.30909 19.1097Z" fill="#E4B043"/>
<path d="M10.8448 18.4553C10.8448 18.819 11.1393 19.11 11.4995 19.11H15.5116C15.8718 19.11 16.1639 18.819 16.1639 18.4553V18.0471H10.8447L10.8448 18.4553Z" fill="#E4B043"/>
<path d="M17.6889 19.1097H21.7011C22.0612 19.1097 22.3534 18.8187 22.3534 18.455V18.0468H17.0342V18.455C17.0342 18.8187 17.3288 19.1097 17.6889 19.1097Z" fill="#E4B043"/>
<path d="M21.1813 6.63092C21.2024 6.64031 21.2294 6.65204 21.247 6.66729C21.2951 6.69779 21.3338 6.73651 21.3643 6.7846C21.3819 6.80572 21.3948 6.83271 21.4031 6.85969C21.4148 6.88315 21.4242 6.91131 21.4265 6.94064C21.4324 6.96762 21.4359 6.99812 21.4359 7.02745V10.0273C21.4359 10.2678 21.2412 10.4625 21.0007 10.4625C20.7578 10.4625 20.5619 10.2677 20.5619 10.0273V7.69383L19.187 8.29449V12.2703C19.187 12.465 19.0603 12.634 18.8749 12.6903C18.259 12.8709 17.643 13.0235 17.0283 13.1408V15.2396H22.3475V1.93457H17.0343V4.81469L21.1675 6.62606C21.1734 6.62488 21.1757 6.6284 21.1816 6.63075L21.1813 6.63092Z" fill="#E4B043"/>
<path d="M13.6791 3.34589L16.1627 4.43342V1.93457H10.8447V4.43342L13.3283 3.34355C13.4398 3.2978 13.5688 3.29779 13.6791 3.34589Z" fill="#E4B043"/>
<path d="M9.97231 13.149C9.35639 13.0317 8.73813 12.8791 8.12575 12.695C7.94274 12.6375 7.81605 12.4662 7.81605 12.275V8.29798L5.83104 7.42984C5.67148 7.36062 5.56942 7.20107 5.56942 7.03096C5.56942 6.85734 5.67148 6.70012 5.83104 6.63209L9.97592 4.81836V1.93469H4.65674V15.2421H9.97592V13.1491L9.97231 13.149Z" fill="#E4B043"/>
<path d="M8.42301 7.61268L13.5052 9.83583L19.9179 7.03079L16.4371 5.5045L16.4218 5.50215L13.5053 4.22223L10.5888 5.49864L10.5736 5.50451L7.09033 7.03079L8.42301 7.61268Z" fill="#E4B043"/>
</svg>
