<svg width="60" height="60" viewBox="0 0 60 60" fill="none" xmlns="http://www.w3.org/2000/svg">
<mask id="mask0_1326_38" style="mask-type:alpha" maskUnits="userSpaceOnUse" x="0" y="0" width="60" height="60">
<rect width="60" height="60" fill="#D9D9D9"/>
</mask>
<g mask="url(#mask0_1326_38)">
<mask id="path-2-outside-1_1326_38" maskUnits="userSpaceOnUse" x="-0.5" y="6.0809" width="53" height="48" fill="black">
<rect fill="white" x="-0.5" y="6.0809" width="53" height="48"/>
<path d="M4.61335 45.7699H18.0765C18.1184 47.1636 17.9732 50.6478 15.7116 51.6287H11.8402C11.4821 51.6287 11.195 51.919 11.195 52.2739C11.195 52.6288 11.4821 52.9191 11.8402 52.9191H40.0598H40.0566C40.4147 52.9191 40.7018 52.6288 40.7018 52.2739C40.7018 51.919 40.4147 51.6287 40.0566 51.6287H36.1851C33.9332 50.6479 33.7849 47.2055 33.8203 45.7699H38.6209C38.9758 45.7699 39.2661 45.4795 39.2661 45.1246C39.2661 44.7697 38.9758 44.4794 38.6209 44.4794H4.61335C3.06799 44.4665 1.82591 43.2082 1.82591 41.6662V11.1943C1.82591 9.63609 3.08732 8.37138 4.64564 8.37138H47.3186C48.0671 8.37138 48.7833 8.6682 49.3124 9.19729C49.8447 9.72638 50.1415 10.4458 50.1415 11.1943V15.0561C50.1415 15.411 50.4287 15.7013 50.7868 15.7013C51.1417 15.7013 51.432 15.411 51.432 15.0561V11.1943C51.432 8.92309 49.5898 7.0809 47.3186 7.0809H4.61343C2.34218 7.08413 0.503221 8.92309 0.5 11.1943V41.6662C0.503226 43.9342 2.34533 45.7699 4.61335 45.7699ZM32.5232 45.7699C32.5232 47.0764 32.6168 49.8574 34.0879 51.6287H17.8184C19.2895 49.8575 19.4089 47.0765 19.3766 45.7699H32.5232ZM8.94936 24.2608H20.0735C20.2477 24.2704 20.4155 24.2091 20.5445 24.093C20.6736 23.9736 20.7478 23.8091 20.751 23.6349V15.5048C20.751 15.1467 20.4639 14.8596 20.1058 14.8596H8.94941C8.59131 14.8596 8.30417 15.1467 8.30417 15.5048V23.6349C8.30417 23.9898 8.59131 24.2801 8.94941 24.2801L8.94936 24.2608ZM9.56879 16.1501H19.4285V23.0316H9.56879V16.1501ZM26.1291 15.5049C26.1258 15.3306 26.1936 15.1661 26.3162 15.0435C26.4355 14.9242 26.6033 14.8564 26.7743 14.8596H32.7105C33.0654 14.8596 33.3557 15.1468 33.3557 15.5049C33.3557 15.8597 33.0654 16.1501 32.7105 16.1501H26.7743C26.4291 16.134 26.1549 15.8501 26.1549 15.5049H26.1291ZM43.5929 19.6764C43.5896 20.0312 43.3025 20.3184 42.9476 20.3216H26.7747C26.4198 20.3216 26.1295 20.0312 26.1295 19.6764C26.1295 19.3215 26.4198 19.0311 26.7747 19.0311H42.9476C43.3025 19.0343 43.5896 19.3215 43.5929 19.6764ZM26.1555 23.7962C26.1458 23.6252 26.2071 23.4542 26.3232 23.3284C26.4394 23.1994 26.6007 23.1252 26.7749 23.1187H32.7111C33.066 23.1187 33.3564 23.4059 33.3564 23.764C33.3564 24.1188 33.066 24.4092 32.7111 24.4092H26.7749C26.4394 24.3995 26.1684 24.1317 26.1555 23.7962ZM8.30516 35.7463C8.30516 36.1044 8.59229 36.3915 8.9504 36.3915H20.0745C20.4294 36.3915 20.7198 36.1044 20.7198 35.7463V27.6162C20.7198 27.2613 20.4294 26.971 20.0745 26.971H8.9504C8.59229 26.971 8.30516 27.2613 8.30516 27.6162V35.7463ZM9.56979 28.2808H19.4295V35.1623H9.56979V28.2808ZM26.13 27.6356C26.1268 27.4614 26.1946 27.2968 26.3172 27.1742C26.4365 27.0549 26.6043 26.9871 26.7753 26.9903H32.7115C33.0664 26.9903 33.3567 27.2775 33.3567 27.6356C33.3567 27.9905 33.0664 28.2808 32.7115 28.2808H26.7753C26.4236 28.2647 26.1462 27.9711 26.1559 27.6162L26.13 27.6356ZM37.1666 32.4103H26.7751C26.4202 32.4103 26.1298 32.12 26.1298 31.7651C26.1298 31.407 26.4202 31.1198 26.7751 31.1198H37.1666C37.5247 31.1198 37.8119 31.407 37.8119 31.7651C37.8119 32.12 37.5247 32.4103 37.1666 32.4103ZM26.7751 36.556C26.4202 36.556 26.1298 36.2656 26.1298 35.9107C26.1298 35.5558 26.4202 35.2655 26.7751 35.2655H32.7113C33.0662 35.2655 33.3565 35.5558 33.3565 35.9107C33.3565 36.2656 33.0662 36.556 32.7113 36.556H26.7751ZM5.95644 39.3273H38.8185C39.1766 39.3273 39.4637 39.6144 39.4637 39.9725C39.4637 40.3274 39.1766 40.6178 38.8185 40.6178H5.98205C5.62394 40.6178 5.33681 40.3274 5.33681 39.9725C5.33681 39.6144 5.62394 39.3273 5.98205 39.3273H5.95644Z"/>
</mask>
<path d="M4.61335 45.7699H18.0765C18.1184 47.1636 17.9732 50.6478 15.7116 51.6287H11.8402C11.4821 51.6287 11.195 51.919 11.195 52.2739C11.195 52.6288 11.4821 52.9191 11.8402 52.9191H40.0598H40.0566C40.4147 52.9191 40.7018 52.6288 40.7018 52.2739C40.7018 51.919 40.4147 51.6287 40.0566 51.6287H36.1851C33.9332 50.6479 33.7849 47.2055 33.8203 45.7699H38.6209C38.9758 45.7699 39.2661 45.4795 39.2661 45.1246C39.2661 44.7697 38.9758 44.4794 38.6209 44.4794H4.61335C3.06799 44.4665 1.82591 43.2082 1.82591 41.6662V11.1943C1.82591 9.63609 3.08732 8.37138 4.64564 8.37138H47.3186C48.0671 8.37138 48.7833 8.6682 49.3124 9.19729C49.8447 9.72638 50.1415 10.4458 50.1415 11.1943V15.0561C50.1415 15.411 50.4287 15.7013 50.7868 15.7013C51.1417 15.7013 51.432 15.411 51.432 15.0561V11.1943C51.432 8.92309 49.5898 7.0809 47.3186 7.0809H4.61343C2.34218 7.08413 0.503221 8.92309 0.5 11.1943V41.6662C0.503226 43.9342 2.34533 45.7699 4.61335 45.7699ZM32.5232 45.7699C32.5232 47.0764 32.6168 49.8574 34.0879 51.6287H17.8184C19.2895 49.8575 19.4089 47.0765 19.3766 45.7699H32.5232ZM8.94936 24.2608H20.0735C20.2477 24.2704 20.4155 24.2091 20.5445 24.093C20.6736 23.9736 20.7478 23.8091 20.751 23.6349V15.5048C20.751 15.1467 20.4639 14.8596 20.1058 14.8596H8.94941C8.59131 14.8596 8.30417 15.1467 8.30417 15.5048V23.6349C8.30417 23.9898 8.59131 24.2801 8.94941 24.2801L8.94936 24.2608ZM9.56879 16.1501H19.4285V23.0316H9.56879V16.1501ZM26.1291 15.5049C26.1258 15.3306 26.1936 15.1661 26.3162 15.0435C26.4355 14.9242 26.6033 14.8564 26.7743 14.8596H32.7105C33.0654 14.8596 33.3557 15.1468 33.3557 15.5049C33.3557 15.8597 33.0654 16.1501 32.7105 16.1501H26.7743C26.4291 16.134 26.1549 15.8501 26.1549 15.5049H26.1291ZM43.5929 19.6764C43.5896 20.0312 43.3025 20.3184 42.9476 20.3216H26.7747C26.4198 20.3216 26.1295 20.0312 26.1295 19.6764C26.1295 19.3215 26.4198 19.0311 26.7747 19.0311H42.9476C43.3025 19.0343 43.5896 19.3215 43.5929 19.6764ZM26.1555 23.7962C26.1458 23.6252 26.2071 23.4542 26.3232 23.3284C26.4394 23.1994 26.6007 23.1252 26.7749 23.1187H32.7111C33.066 23.1187 33.3564 23.4059 33.3564 23.764C33.3564 24.1188 33.066 24.4092 32.7111 24.4092H26.7749C26.4394 24.3995 26.1684 24.1317 26.1555 23.7962ZM8.30516 35.7463C8.30516 36.1044 8.59229 36.3915 8.9504 36.3915H20.0745C20.4294 36.3915 20.7198 36.1044 20.7198 35.7463V27.6162C20.7198 27.2613 20.4294 26.971 20.0745 26.971H8.9504C8.59229 26.971 8.30516 27.2613 8.30516 27.6162V35.7463ZM9.56979 28.2808H19.4295V35.1623H9.56979V28.2808ZM26.13 27.6356C26.1268 27.4614 26.1946 27.2968 26.3172 27.1742C26.4365 27.0549 26.6043 26.9871 26.7753 26.9903H32.7115C33.0664 26.9903 33.3567 27.2775 33.3567 27.6356C33.3567 27.9905 33.0664 28.2808 32.7115 28.2808H26.7753C26.4236 28.2647 26.1462 27.9711 26.1559 27.6162L26.13 27.6356ZM37.1666 32.4103H26.7751C26.4202 32.4103 26.1298 32.12 26.1298 31.7651C26.1298 31.407 26.4202 31.1198 26.7751 31.1198H37.1666C37.5247 31.1198 37.8119 31.407 37.8119 31.7651C37.8119 32.12 37.5247 32.4103 37.1666 32.4103ZM26.7751 36.556C26.4202 36.556 26.1298 36.2656 26.1298 35.9107C26.1298 35.5558 26.4202 35.2655 26.7751 35.2655H32.7113C33.0662 35.2655 33.3565 35.5558 33.3565 35.9107C33.3565 36.2656 33.0662 36.556 32.7113 36.556H26.7751ZM5.95644 39.3273H38.8185C39.1766 39.3273 39.4637 39.6144 39.4637 39.9725C39.4637 40.3274 39.1766 40.6178 38.8185 40.6178H5.98205C5.62394 40.6178 5.33681 40.3274 5.33681 39.9725C5.33681 39.6144 5.62394 39.3273 5.98205 39.3273H5.95644Z" fill="#34691D"/>
<path d="M4.61335 45.7699H18.0765C18.1184 47.1636 17.9732 50.6478 15.7116 51.6287H11.8402C11.4821 51.6287 11.195 51.919 11.195 52.2739C11.195 52.6288 11.4821 52.9191 11.8402 52.9191H40.0598H40.0566C40.4147 52.9191 40.7018 52.6288 40.7018 52.2739C40.7018 51.919 40.4147 51.6287 40.0566 51.6287H36.1851C33.9332 50.6479 33.7849 47.2055 33.8203 45.7699H38.6209C38.9758 45.7699 39.2661 45.4795 39.2661 45.1246C39.2661 44.7697 38.9758 44.4794 38.6209 44.4794H4.61335C3.06799 44.4665 1.82591 43.2082 1.82591 41.6662V11.1943C1.82591 9.63609 3.08732 8.37138 4.64564 8.37138H47.3186C48.0671 8.37138 48.7833 8.6682 49.3124 9.19729C49.8447 9.72638 50.1415 10.4458 50.1415 11.1943V15.0561C50.1415 15.411 50.4287 15.7013 50.7868 15.7013C51.1417 15.7013 51.432 15.411 51.432 15.0561V11.1943C51.432 8.92309 49.5898 7.0809 47.3186 7.0809H4.61343C2.34218 7.08413 0.503221 8.92309 0.5 11.1943V41.6662C0.503226 43.9342 2.34533 45.7699 4.61335 45.7699ZM32.5232 45.7699C32.5232 47.0764 32.6168 49.8574 34.0879 51.6287H17.8184C19.2895 49.8575 19.4089 47.0765 19.3766 45.7699H32.5232ZM8.94936 24.2608H20.0735C20.2477 24.2704 20.4155 24.2091 20.5445 24.093C20.6736 23.9736 20.7478 23.8091 20.751 23.6349V15.5048C20.751 15.1467 20.4639 14.8596 20.1058 14.8596H8.94941C8.59131 14.8596 8.30417 15.1467 8.30417 15.5048V23.6349C8.30417 23.9898 8.59131 24.2801 8.94941 24.2801L8.94936 24.2608ZM9.56879 16.1501H19.4285V23.0316H9.56879V16.1501ZM26.1291 15.5049C26.1258 15.3306 26.1936 15.1661 26.3162 15.0435C26.4355 14.9242 26.6033 14.8564 26.7743 14.8596H32.7105C33.0654 14.8596 33.3557 15.1468 33.3557 15.5049C33.3557 15.8597 33.0654 16.1501 32.7105 16.1501H26.7743C26.4291 16.134 26.1549 15.8501 26.1549 15.5049H26.1291ZM43.5929 19.6764C43.5896 20.0312 43.3025 20.3184 42.9476 20.3216H26.7747C26.4198 20.3216 26.1295 20.0312 26.1295 19.6764C26.1295 19.3215 26.4198 19.0311 26.7747 19.0311H42.9476C43.3025 19.0343 43.5896 19.3215 43.5929 19.6764ZM26.1555 23.7962C26.1458 23.6252 26.2071 23.4542 26.3232 23.3284C26.4394 23.1994 26.6007 23.1252 26.7749 23.1187H32.7111C33.066 23.1187 33.3564 23.4059 33.3564 23.764C33.3564 24.1188 33.066 24.4092 32.7111 24.4092H26.7749C26.4394 24.3995 26.1684 24.1317 26.1555 23.7962ZM8.30516 35.7463C8.30516 36.1044 8.59229 36.3915 8.9504 36.3915H20.0745C20.4294 36.3915 20.7198 36.1044 20.7198 35.7463V27.6162C20.7198 27.2613 20.4294 26.971 20.0745 26.971H8.9504C8.59229 26.971 8.30516 27.2613 8.30516 27.6162V35.7463ZM9.56979 28.2808H19.4295V35.1623H9.56979V28.2808ZM26.13 27.6356C26.1268 27.4614 26.1946 27.2968 26.3172 27.1742C26.4365 27.0549 26.6043 26.9871 26.7753 26.9903H32.7115C33.0664 26.9903 33.3567 27.2775 33.3567 27.6356C33.3567 27.9905 33.0664 28.2808 32.7115 28.2808H26.7753C26.4236 28.2647 26.1462 27.9711 26.1559 27.6162L26.13 27.6356ZM37.1666 32.4103H26.7751C26.4202 32.4103 26.1298 32.12 26.1298 31.7651C26.1298 31.407 26.4202 31.1198 26.7751 31.1198H37.1666C37.5247 31.1198 37.8119 31.407 37.8119 31.7651C37.8119 32.12 37.5247 32.4103 37.1666 32.4103ZM26.7751 36.556C26.4202 36.556 26.1298 36.2656 26.1298 35.9107C26.1298 35.5558 26.4202 35.2655 26.7751 35.2655H32.7113C33.0662 35.2655 33.3565 35.5558 33.3565 35.9107C33.3565 36.2656 33.0662 36.556 32.7113 36.556H26.7751ZM5.95644 39.3273H38.8185C39.1766 39.3273 39.4637 39.6144 39.4637 39.9725C39.4637 40.3274 39.1766 40.6178 38.8185 40.6178H5.98205C5.62394 40.6178 5.33681 40.3274 5.33681 39.9725C5.33681 39.6144 5.62394 39.3273 5.98205 39.3273H5.95644Z" stroke="#34691D" stroke-width="0.6" mask="url(#path-2-outside-1_1326_38)"/>
<path d="M49.1032 22.3695C49.1824 22.3768 49.259 22.3994 49.3288 22.4359L49.4274 22.5004L49.5124 22.5854C49.588 22.6766 49.637 22.7889 49.6491 22.9096H49.6481C49.665 23.0689 49.6173 23.2286 49.5163 23.352L49.5153 23.351C49.4147 23.4746 49.2696 23.5545 49.1091 23.5707L49.11 23.5717C47.1661 23.7796 45.3509 24.6473 43.9684 26.0297C42.586 27.4121 41.7183 29.2273 41.5104 31.1713C41.4933 31.3301 41.4146 31.4771 41.2897 31.5785C41.1652 31.6795 41.0064 31.7262 40.8483 31.7104L40.3991 31.6654L40.5124 31.5619C40.4871 31.5397 40.4627 31.5162 40.4411 31.4897C40.3406 31.3659 40.292 31.2067 40.3093 31.0463C40.5465 28.8261 41.5359 26.7544 43.1149 25.1762C44.6931 23.5973 46.7646 22.6079 48.9841 22.3705L49.1032 22.3695Z" fill="#34691D" stroke="#34691D" stroke-width="0.4"/>
<path d="M40.8457 32.4164C41.0058 32.399 41.166 32.4475 41.29 32.5482H41.291C41.4132 32.6485 41.4933 32.7944 41.5098 32.9545C41.7177 34.8994 42.5847 36.7147 43.9678 38.0971C45.3502 39.4804 47.1655 40.3492 49.1094 40.557H49.1084C49.2692 40.5732 49.4159 40.6528 49.5166 40.7768H49.5156C49.617 40.9005 49.6658 41.0612 49.6484 41.2211C49.6319 41.3811 49.5513 41.5275 49.4268 41.6273L49.4258 41.6264C49.3019 41.7264 49.1439 41.7755 48.9834 41.7582C46.7641 41.5209 44.6931 40.5303 43.1143 38.9516C41.536 37.3726 40.5451 35.3001 40.3086 33.0805C40.2915 32.9207 40.3381 32.7609 40.4395 32.6361C40.5405 32.511 40.6868 32.4338 40.8457 32.4174V32.4164Z" fill="#34691D" stroke="#34691D" stroke-width="0.4"/>
<path d="M59.1577 32.4163C59.3167 32.4324 59.4637 32.5115 59.5649 32.636C59.5979 32.6767 59.6227 32.7227 59.644 32.7698L59.7885 32.888L59.6801 32.8753C59.6963 32.9417 59.7042 33.0106 59.6967 33.0804C59.4595 35.2965 58.4707 37.3663 56.8959 38.9436C55.3213 40.5218 53.2544 41.5147 51.0375 41.7571L51.0278 41.7581V41.7571C51.0147 41.7579 50.994 41.7591 50.9731 41.7591C50.6517 41.7588 50.3866 41.5075 50.3705 41.1858L50.3715 41.1848C50.3553 40.8647 50.5918 40.5887 50.9096 40.555C52.8512 40.3423 54.6613 39.4728 56.0414 38.0911C57.4206 36.7088 58.2866 34.8967 58.4946 32.9554C58.5108 32.7958 58.5898 32.6493 58.7143 32.5481C58.7179 32.5452 58.7224 32.5431 58.726 32.5403L58.4926 32.3499L59.1577 32.4163Z" fill="#34691D" stroke="#34691D" stroke-width="0.4"/>
<path d="M51.0367 22.3723H51.0387C53.2538 22.614 55.3206 23.6059 56.8951 25.1829C58.3722 26.6615 59.3332 28.5725 59.6432 30.6321L59.6969 31.0462V31.1692C59.6732 31.409 59.5076 31.6134 59.278 31.6858L59.1578 31.7102C58.8685 31.7393 58.6047 31.5593 58.5201 31.2913L58.4948 31.1721C58.2868 29.2307 57.4208 27.418 56.0416 26.0364C54.6614 24.6547 52.8512 23.7855 50.9098 23.5745C50.5787 23.5386 50.3392 23.2418 50.3737 22.9104C50.4082 22.5789 50.7045 22.3381 51.0367 22.3723Z" fill="#34691D" stroke="#34691D" stroke-width="0.4"/>
<path d="M50.0029 24.8711C50.335 24.8713 50.6064 25.1401 50.6064 25.4746V31.46H56.5927C56.9265 31.4601 57.1962 31.7307 57.1962 32.0645C57.1962 32.3983 56.9265 32.6679 56.5927 32.668H50.6064V38.6543C50.6064 38.9889 50.335 39.2577 50.0029 39.2578C49.6706 39.2578 49.3984 38.989 49.3984 38.6543V32.668H43.413C43.0797 32.668 42.8076 32.3989 42.8076 32.0645C42.8076 31.7301 43.0797 31.46 43.413 31.46H49.3984V25.4746C49.3984 25.1399 49.6706 24.8711 50.0029 24.8711Z" fill="#34691D" stroke="#34691D" stroke-width="0.4"/>
</g>
</svg>
